<svg xmlns="http://www.w3.org/2000/svg" width="102.518" height="19.199" viewBox="0 0 102.518 19.199"><defs><style>.a{fill:#4c2e73;fill-rule:evenodd;}</style></defs><g transform="translate(-130.093 -258.583)"><g transform="translate(130.093 258.583)"><path class="a" d="M135.135,269.928v4.38c0,.968.164,1.137,1.106,1.137h6.972c.768,0,.985-.216.986-.987,0-1.681.01-3.361-.007-5.042,0-.359.073-.5.465-.488,1.376.024,2.753.02,4.13,0,.366,0,.434.09.392.457a9.578,9.578,0,1,1-.075-2.926c.1.5,0,.636-.521.622-1.322-.037-2.646-.023-3.968,0-.331,0-.428-.086-.422-.418.02-1.036.011-2.074.006-3.111,0-.67-.239-.91-.9-.911q-3.62-.005-7.24,0c-.7,0-.918.228-.925.942-.005.59,0,1.18,0,1.77,0,.117.045.329-.094.323-.649-.024-.827.639-1.307.855-.164.074-.325.2-.067.385.218.158.018.326-.033.469a15.922,15.922,0,0,0-1.063,3.929,3.278,3.278,0,0,0,.071,1.223.955.955,0,0,0,1.038.746c.5-.034.709-.335.822-.81.135-.567.025-1.144.18-1.715A1.549,1.549,0,0,1,135.135,269.928Z" transform="translate(-130.093 -258.583)"/><path class="a" d="M166.151,285.521c.821,0,1.641,0,2.462,0,.651,0,.848.208.85.872,0,.714,0,1.427,0,2.141a.648.648,0,0,1-.725.73q-2.543.01-5.085,0a.658.658,0,0,1-.747-.715c-.008-.767-.013-1.535,0-2.3.009-.455.176-.757.726-.737C164.472,285.544,165.312,285.521,166.151,285.521Z" transform="translate(-156.613 -280.352)"/><path class="a" d="M147.2,300.924c0,.774-.011,1.465.006,2.155a.535.535,0,0,1-.255.482,1.722,1.722,0,0,0-.667,1.641,2.58,2.58,0,0,1-.2,1.448c-.177.356-.52.454-.752.158a1.239,1.239,0,0,1-.311-.93,17.38,17.38,0,0,1,1.222-4.17c.039-.093.05-.261.168-.247C146.8,301.51,146.895,301.151,147.2,300.924Z" transform="translate(-142.154 -292.811)"/></g><g transform="translate(151.038 260.422)"><path class="a" d="M484.8,271.374c.2-.3.346-.565.524-.805a5.13,5.13,0,0,1,4.216-2.207,9.544,9.544,0,0,1,1.978.09,5.107,5.107,0,0,1,4.14,4.714c.077,2.392.026,4.789.032,7.183,0,.285-.094.522-.407.517-.341-.005-.419-.258-.419-.564,0-2.252.015-4.5,0-6.755a4.318,4.318,0,0,0-3.485-4.3,7.083,7.083,0,0,0-2.667,0,4.326,4.326,0,0,0-3.488,4.24c-.015,2.2,0,4.4,0,6.595a2.653,2.653,0,0,1-.01.428.386.386,0,0,1-.4.356.381.381,0,0,1-.385-.372,3.191,3.191,0,0,1-.008-.428c0-2.127,0-4.253,0-6.38a4.339,4.339,0,0,0-4.521-4.521,7.809,7.809,0,0,0-1.709.086,4.387,4.387,0,0,0-3.454,4.226c-.014,2.216,0,4.432,0,6.648a1.915,1.915,0,0,1-.019.427.385.385,0,0,1-.757,0,2.209,2.209,0,0,1-.022-.427q0-3.217,0-6.434a5.18,5.18,0,0,1,5.353-5.339,7.142,7.142,0,0,1,2.589.324A5.478,5.478,0,0,1,484.8,271.374Z" transform="translate(-428.991 -268.319)"/><path class="a" d="M321.454,278.718c0,2.12,0,4.1,0,6.076,0,.313.012.531-.423.533-.455,0-.371-.268-.371-.526,0-3.788-.007-7.577,0-11.365a5.072,5.072,0,0,1,5.074-5.083,24.013,24.013,0,0,1,2.677.049,5.055,5.055,0,0,1,4.491,4.985q.012,1.233,0,2.466a5.1,5.1,0,0,1-5.04,5.016q-1.1.01-2.2,0a4.974,4.974,0,0,1-3.482-1.426C321.973,279.237,321.762,279.023,321.454,278.718Zm10.654-4.127H332.1c0-.482.026-.966,0-1.447a4.223,4.223,0,0,0-4.193-3.984q-1.126-.016-2.251,0a4.245,4.245,0,0,0-4.194,4.214c-.012.8-.005,1.608,0,2.412a4.247,4.247,0,0,0,4.183,4.28q1.151.032,2.3,0a4.236,4.236,0,0,0,4.163-4.136C332.122,275.486,332.108,275.039,332.108,274.592Z" transform="translate(-305.089 -268.31)"/><path class="a" d="M601.978,278.577c0,2.128,0,4.127,0,6.126,0,.3-.009.49-.406.5-.426.007-.39-.225-.39-.5,0-3.788,0-7.577,0-11.365a5.047,5.047,0,0,1,4.576-5.069,15.475,15.475,0,0,1,3.158.008,5.067,5.067,0,0,1,4.51,5.026c.006.8-.007,1.608,0,2.412a4.942,4.942,0,0,1-1.468,3.571,4.683,4.683,0,0,1-3.041,1.434,21.08,21.08,0,0,1-3.267-.005,4.782,4.782,0,0,1-2.947-1.391C602.5,279.108,602.29,278.891,601.978,278.577Zm10.644-4.079h.015c0-.429.012-.858,0-1.286a4.236,4.236,0,0,0-4.283-4.178c-.715-.006-1.43-.009-2.144,0a4.247,4.247,0,0,0-4.228,4.236c-.011.786,0,1.572,0,2.359a4.251,4.251,0,0,0,4.205,4.314c.768.019,1.537.022,2.3,0A4.224,4.224,0,0,0,612.617,276C612.656,275.5,612.623,275,612.623,274.5Z" transform="translate(-531.864 -268.184)"/><path class="a" d="M245.829,276.146c-1.751,0-3.5.009-5.254-.007-.374,0-.491.049-.295.428a11.763,11.763,0,0,0,.736,1.484,4.245,4.245,0,0,0,3.6,1.888c1.644.015,3.288,0,4.933,0,.125,0,.25,0,.375,0,.283-.006.526.087.521.4s-.235.4-.525.4c-1.43,0-2.859,0-4.289,0a12.839,12.839,0,0,1-1.766-.056,5.131,5.131,0,0,1-4.37-4.682,14.53,14.53,0,0,1,0-3.212,5.1,5.1,0,0,1,4.582-4.525,15.886,15.886,0,0,1,3.318.006,5.148,5.148,0,0,1,4.567,5.056c.01.625.006,1.251,0,1.876-.005.7-.24.939-.929.941C249.3,276.149,247.563,276.146,245.829,276.146Zm-.156-.788c1.678,0,3.357,0,5.035,0,.185,0,.476.112.445-.263a13.167,13.167,0,0,0-.187-2.8,4.272,4.272,0,0,0-4.16-3.257c-.768-.007-1.537.026-2.3-.006a4.572,4.572,0,0,0-4.109,3.234,14.263,14.263,0,0,0-.148,2.666c-.021.357.093.446.446.441C242.352,275.347,244.013,275.358,245.673,275.358Z" transform="translate(-239.403 -268.181)"/><path class="a" d="M402.443,272.6c0,.983.008,1.966,0,2.949a5.12,5.12,0,0,0,1.316,3.318c1.25,1.6,5.108,1.6,6.458.55a4.417,4.417,0,0,0,1.91-3.6c.012-2.2,0-4.4,0-6.6a2.4,2.4,0,0,1,.024-.479.383.383,0,0,1,.745-.02,1.848,1.848,0,0,1,.036.476c0,2.145-.025,4.29.007,6.435a5.3,5.3,0,0,1-5.317,5.343,7.009,7.009,0,0,1-4.231-1.226,3.628,3.628,0,0,1-.769-.948,5.084,5.084,0,0,1-.985-3.005c-.008-2.234,0-4.469,0-6.7,0-.3.012-.633.39-.643.426-.012.42.342.419.659C402.441,270.273,402.443,271.435,402.443,272.6Z" transform="translate(-370.55 -268.391)"/><path class="a" d="M413.405,349.8a6.209,6.209,0,0,1-.055-1.485c0-.2.166-.225.3-.11a1.123,1.123,0,0,1,.2.31c.08.14.149.3.351.265.245-.049.112-.259.145-.4a.313.313,0,0,1,.214-.29c0,.529.009,1.008,0,1.487-.005.184-.143.178-.27.108-.043-.024-.07-.08-.1-.121-.158-.2-.169-.621-.459-.575C413.366,349.049,413.687,349.506,413.405,349.8Z" transform="translate(-380.005 -332.782)"/><path class="a" d="M449.73,348.468a3.406,3.406,0,0,0-.489-.072.431.431,0,0,0-.483.4c.012.255-.092.585.212.775a.4.4,0,0,0,.528-.11c.19-.237-.132-.195-.218-.287a1.844,1.844,0,0,1-.132-.189c.227-.035.484-.139.593.064a.8.8,0,0,1-.006.622c-.1.218-.367.183-.578.163a.7.7,0,0,1-.668-.652.793.793,0,0,1,.429-.9A.585.585,0,0,1,449.73,348.468Z" transform="translate(-408.414 -332.863)"/><path class="a" d="M462.214,349.86c0-.491-.008-.945,0-1.4.007-.324.271-.216.44-.219.271,0,.62.178.5.394-.248.452,0,.8.106,1.181-.266.062-.26-.133-.3-.247-.068-.2-.216-.391-.383-.363-.19.032-.144.288-.151.462C462.429,349.744,462.41,349.811,462.214,349.86Zm.751-1.165a.28.28,0,0,0-.285-.259c-.184-.021-.268.043-.251.233.012.135-.034.307.193.3A.325.325,0,0,0,462.965,348.7Z" transform="translate(-419.519 -332.89)"/><path class="a" d="M583.4,349.85c-.3.063-.368-.107-.347-.393a3.542,3.542,0,0,0,0-.745c-.06-.432.146-.524.516-.478a.764.764,0,0,1,.722.878C584.249,349.6,583.95,349.854,583.4,349.85Zm-.136-.9c.068.258-.152.68.35.681.366,0,.45-.3.447-.6,0-.349-.153-.586-.537-.587C583.1,348.441,583.344,348.778,583.26,348.952Z" transform="translate(-517.192 -332.886)"/><path class="a" d="M547.748,348.4c0,.381.028.765-.009,1.143a.6.6,0,0,1-1.127.118,2.463,2.463,0,0,1,.021-1.277c.213.293.1.616.129.922.022.249.07.482.366.5.335.024.394-.251.415-.492.028-.308.007-.62.007-.93Z" transform="translate(-487.685 -333.012)"/><path class="a" d="M525.136,348.35c-.163.124-.256.018-.358.017-.133,0-.255.012-.293.164a.238.238,0,0,0,.135.265,1.4,1.4,0,0,0,.14.079c.287.144.587.322.358.687-.238.38-.587.313-.924.1.036-.155.135-.123.208-.083a.38.38,0,0,0,.507-.163c.1-.188-.122-.293-.285-.37-.289-.137-.518-.346-.306-.663C524.514,348.09,524.815,348.1,525.136,348.35Z" transform="translate(-469.624 -332.837)"/><path class="a" d="M438.979,349.842c-.38.023-.667.131-.935-.059a6.123,6.123,0,0,1,0-1.429c.093-.125.417-.123.828.007-.117.3-.638-.137-.635.324,0,.328.349.214.569.312-.1.3-.7-.094-.58.432C438.314,349.807,438.695,349.587,438.979,349.842Z" transform="translate(-399.95 -332.917)"/><path class="a" d="M560.853,349.786c-.247-.026-.241-.242-.332-.379s-.19-.3-.364-.25-.071.244-.1.372a.348.348,0,0,1-.2.321,9.306,9.306,0,0,1,.028-1.568c.037-.205.406-.122.623-.058s.406.271.284.431c-.293.386-.052.667.077.986C560.888,349.679,560.861,349.733,560.853,349.786Zm-.259-1.169c-.025-.18-.151-.234-.326-.247-.211-.015-.214.115-.211.265s-.009.291.207.271A.32.32,0,0,0,560.593,348.618Z" transform="translate(-498.441 -332.828)"/><path class="a" d="M535.808,348.338c-.131.116-.227.014-.326.011-.133,0-.26.012-.3.159s.07.227.175.3a1.623,1.623,0,0,0,.19.1c.2.1.377.228.349.483a.424.424,0,0,1-.332.38.559.559,0,0,1-.683-.2c.1-.011.148-.031.188-.018.209.072.449.161.564-.094.13-.287-.162-.336-.333-.439-.265-.158-.511-.355-.258-.673A.466.466,0,0,1,535.808,348.338Z" transform="translate(-478.262 -332.819)"/><path class="a" d="M572.612,348.273c-.122.359-.682-.113-.667.417.012.427.452.063.565.326-.095.195-.47-.088-.491.293-.026.477.446.225.644.488a1.312,1.312,0,0,1-.892-.045,5.443,5.443,0,0,1-.005-1.426A1.067,1.067,0,0,1,572.612,348.273Z" transform="translate(-508.044 -332.877)"/><path class="a" d="M493.629,347.9a4.981,4.981,0,0,0-.614,1.7,3.59,3.59,0,0,0-.614-1.645c.45.088.365.512.637.625C493.263,348.445,493.227,348.1,493.629,347.9Z" transform="translate(-443.923 -332.622)"/><path class="a" d="M425.158,348.479h1.125c-.631.148-.437.645-.45,1.05-.005.171,0,.341,0,.661-.332-.4-.191-.719-.219-1.006-.029-.306.12-.718-.635-.481Z" transform="translate(-389.42 -333.093)"/><path class="a" d="M481.73,349.962a1.594,1.594,0,0,1-.084-.774c-.022-.337.142-.773-.5-.765a2.61,2.61,0,0,1,1.224-.043C481.359,348.614,482.141,349.474,481.73,349.962Z" transform="translate(-434.822 -332.971)"/><path class="a" d="M405.57,349.976v-1.57h.132a9,9,0,0,1,.026,1.571Z" transform="translate(-373.73 -333.033)"/><path class="a" d="M474.459,349.977V348.4l.087,0v1.574Z" transform="translate(-429.419 -333.032)"/><path class="a" d="M561.5,349.539a.32.32,0,0,1-.33.289c-.216.021-.2-.126-.207-.271s0-.28.211-.265C561.347,349.3,561.473,349.359,561.5,349.539Z" transform="translate(-499.346 -333.749)"/><path class="a" d="M513.075,350.221c.472-.458.885-.337,1.327.059-.135-.507-.3-.966-.462-1.425-.03-.085-.08-.163-.182-.167-.135-.006-.175.1-.211.2C513.387,349.332,513.232,349.777,513.075,350.221Z" transform="translate(-460.636 -333.261)"/></g></g></svg>